<svg xmlns="http://www.w3.org/2000/svg" xmlns:xlink="http://www.w3.org/1999/xlink" width="382pt" height="710pt" viewBox="0.00 0.00 381.78 710.40">
<g id="graph0" class="graph" transform="scale(1 1) rotate(0) translate(4 706.4)">
<title>ProductDevelopmentFlow</title>
<polygon fill="white" stroke="none" points="-4,4 -4,-706.4 377.78,-706.4 377.78,4 -4,4"/>
<!-- pm -->
<g id="node1" class="node">
<title>pm</title>
<polygon fill="lightyellow" stroke="black" points="222.84,-702.4 100.71,-702.4 100.71,-660.8 222.84,-660.8 222.84,-702.4"/>
<text text-anchor="middle" x="161.78" y="-685.8" font-family="Times,serif" font-size="14.00">产品经理</text>
<text text-anchor="middle" x="161.78" y="-669" font-family="Times,serif" font-size="14.00">(Product Manager)</text>
</g>
<!-- uxd -->
<g id="node2" class="node">
<title>uxd</title>
<polygon fill="red" stroke="black" points="125.57,-608 25.98,-608 25.98,-566.4 125.57,-566.4 125.57,-608"/>
<text text-anchor="middle" x="75.78" y="-591.4" font-family="Times,serif" font-size="14.00">交互设计师</text>
<text text-anchor="middle" x="75.78" y="-574.6" font-family="Times,serif" font-size="14.00">(UX Designer)</text>
</g>
<!-- pm&#45;&gt;uxd -->
<g id="edge1" class="edge">
<title>pm-&gt;uxd</title>
<path fill="none" stroke="black" stroke-dasharray="5,2" d="M138.54,-660.36C132.52,-654.83 126.15,-648.73 120.54,-642.8 112.99,-634.82 105.25,-625.74 98.36,-617.31"/>
<polygon fill="black" stroke="black" points="101.22,-615.28 92.23,-609.67 95.76,-619.66 101.22,-615.28"/>
<text text-anchor="middle" x="134.16" y="-630.2" font-family="Times,serif" font-size="14.00">PRD</text>
</g>
<!-- uid -->
<g id="node3" class="node">
<title>uid</title>
<polygon fill="gray" stroke="black" points="192.84,-513.6 98.71,-513.6 98.71,-472 192.84,-472 192.84,-513.6"/>
<text text-anchor="middle" x="145.78" y="-497" font-family="Times,serif" font-size="14.00">UI设计师</text>
<text text-anchor="middle" x="145.78" y="-480.2" font-family="Times,serif" font-size="14.00">(UI Designer)</text>
</g>
<!-- pm&#45;&gt;uid -->
<g id="edge2" class="edge">
<title>pm-&gt;uid</title>
<path fill="none" stroke="black" stroke-dasharray="5,2" d="M160.06,-660.61C157.29,-628.18 151.78,-563.86 148.47,-525.25"/>
<polygon fill="black" stroke="black" points="151.97,-525.1 147.63,-515.44 145,-525.7 151.97,-525.1"/>
<text text-anchor="middle" x="168.98" y="-583" font-family="Times,serif" font-size="14.00">PRD</text>
</g>
<!-- arch -->
<g id="node4" class="node">
<title>arch</title>
<polygon fill="lightpink" stroke="black" points="338.96,-513.6 210.6,-513.6 210.6,-472 338.96,-472 338.96,-513.6"/>
<text text-anchor="middle" x="274.78" y="-497" font-family="Times,serif" font-size="14.00">架构师</text>
<text text-anchor="middle" x="274.78" y="-480.2" font-family="Times,serif" font-size="14.00">(Solution Architect)</text>
</g>
<!-- pm&#45;&gt;arch -->
<g id="edge3" class="edge">
<title>pm-&gt;arch</title>
<path fill="none" stroke="black" stroke-dasharray="5,2" d="M173.87,-660.61C193.78,-627.69 233.58,-561.91 256.8,-523.52"/>
<polygon fill="black" stroke="black" points="259.63,-525.59 261.82,-515.22 253.65,-521.97 259.63,-525.59"/>
<text text-anchor="middle" x="243.13" y="-583" font-family="Times,serif" font-size="14.00">PRD</text>
</g>
<!-- uxd&#45;&gt;uid -->
<g id="edge4" class="edge">
<title>uxd-&gt;uid</title>
<path fill="none" stroke="black" d="M84.94,-566.08C90.28,-555.35 97.57,-542.21 105.78,-531.6 108.32,-528.31 111.16,-525.04 114.12,-521.89"/>
<polygon fill="black" stroke="black" points="116.46,-524.49 121.03,-514.93 111.5,-519.55 116.46,-524.49"/>
<text text-anchor="middle" x="126.78" y="-535.8" font-family="Times,serif" font-size="14.00">交互原型</text>
</g>
<!-- fe -->
<g id="node5" class="node">
<title>fe</title>
<polygon fill="lightcyan" stroke="black" points="214.62,-419.2 76.94,-419.2 76.94,-377.6 214.62,-377.6 214.62,-419.2"/>
<text text-anchor="middle" x="145.78" y="-402.6" font-family="Times,serif" font-size="14.00">前端工程师</text>
<text text-anchor="middle" x="145.78" y="-385.8" font-family="Times,serif" font-size="14.00">(Frontend Developer)</text>
</g>
<!-- uxd&#45;&gt;fe -->
<g id="edge5" class="edge">
<title>uxd-&gt;fe</title>
<path fill="none" stroke="black" stroke-dasharray="5,2" d="M62.9,-566.27C49.43,-542.71 32.26,-502.81 47.78,-472 57.5,-452.69 75.06,-437.24 92.65,-425.64"/>
<polygon fill="black" stroke="black" points="94.45,-428.64 101.09,-420.38 90.75,-422.69 94.45,-428.64"/>
<text text-anchor="middle" x="68.78" y="-488.6" font-family="Times,serif" font-size="14.00">交互流程</text>
</g>
<!-- uid&#45;&gt;fe -->
<g id="edge6" class="edge">
<title>uid-&gt;fe</title>
<path fill="none" stroke="black" d="M145.78,-471.75C145.78,-459.76 145.78,-444.27 145.78,-430.7"/>
<polygon fill="black" stroke="black" points="149.28,-430.92 145.78,-420.92 142.28,-430.92 149.28,-430.92"/>
<text text-anchor="middle" x="168.91" y="-441.4" font-family="Times,serif" font-size="14.00">UI设计稿</text>
</g>
<!-- arch&#45;&gt;fe -->
<g id="edge7" class="edge">
<title>arch-&gt;fe</title>
<path fill="none" stroke="black" stroke-dasharray="5,2" d="M244.37,-471.66C236.02,-466.03 227,-459.84 218.78,-454 206.46,-445.25 193.18,-435.43 181.36,-426.55"/>
<polygon fill="black" stroke="black" points="183.55,-423.82 173.45,-420.59 179.33,-429.41 183.55,-423.82"/>
<text text-anchor="middle" x="239.78" y="-441.4" font-family="Times,serif" font-size="14.00">技术方案</text>
</g>
<!-- be -->
<g id="node6" class="node">
<title>be</title>
<polygon fill="lightcyan" stroke="black" points="243.83,-230.4 107.72,-230.4 107.72,-188.8 243.83,-188.8 243.83,-230.4"/>
<text text-anchor="middle" x="175.78" y="-213.8" font-family="Times,serif" font-size="14.00">后端工程师</text>
<text text-anchor="middle" x="175.78" y="-197" font-family="Times,serif" font-size="14.00">(Backend Developer)</text>
</g>
<!-- arch&#45;&gt;be -->
<g id="edge8" class="edge">
<title>arch-&gt;be</title>
<path fill="none" stroke="black" stroke-dasharray="5,2" d="M275,-471.74C274.67,-433.26 270.24,-347.19 239.78,-283.2 231.97,-266.81 219.35,-251.32 207.37,-238.89"/>
<polygon fill="black" stroke="black" points="209.88,-236.44 200.32,-231.87 204.94,-241.4 209.88,-236.44"/>
<text text-anchor="middle" x="284.9" y="-347" font-family="Times,serif" font-size="14.00">架构设计</text>
</g>
<!-- devops -->
<g id="node8" class="node">
<title>devops</title>
<polygon fill="lightsalmon" stroke="black" points="174.4,-136 49.16,-136 49.16,-94.4 174.4,-94.4 174.4,-136"/>
<text text-anchor="middle" x="111.78" y="-119.4" font-family="Times,serif" font-size="14.00">运维工程师</text>
<text text-anchor="middle" x="111.78" y="-102.6" font-family="Times,serif" font-size="14.00">(DevOps Engineer)</text>
</g>
<!-- arch&#45;&gt;devops -->
<g id="edge9" class="edge">
<title>arch-&gt;devops</title>
<path fill="none" stroke="black" stroke-dasharray="5,2" d="M296.33,-471.59C312.47,-454.18 331.78,-427.48 331.78,-399.4 331.78,-399.4 331.78,-399.4 331.78,-208.6 331.78,-143.92 249.95,-123.77 186.1,-117.89"/>
<polygon fill="black" stroke="black" points="186.58,-114.41 176.33,-117.1 186.01,-121.39 186.58,-114.41"/>
<text text-anchor="middle" x="352.78" y="-299.8" font-family="Times,serif" font-size="14.00">技术规范</text>
</g>
<!-- qa -->
<g id="node7" class="node">
<title>qa</title>
<polygon fill="lightcoral" stroke="black" points="130.56,-324.8 30.99,-324.8 30.99,-283.2 130.56,-283.2 130.56,-324.8"/>
<text text-anchor="middle" x="80.78" y="-308.2" font-family="Times,serif" font-size="14.00">测试工程师</text>
<text text-anchor="middle" x="80.78" y="-291.4" font-family="Times,serif" font-size="14.00">(QA Engineer)</text>
</g>
<!-- fe&#45;&gt;qa -->
<g id="edge10" class="edge">
<title>fe-&gt;qa</title>
<path fill="none" stroke="black" d="M140.19,-377.33C136.58,-366.49 131.16,-353.22 123.78,-342.8 121.4,-339.44 118.66,-336.18 115.74,-333.07"/>
<polygon fill="black" stroke="black" points="118.41,-330.78 108.82,-326.29 113.52,-335.79 118.41,-330.78"/>
<text text-anchor="middle" x="153.57" y="-347" font-family="Times,serif" font-size="14.00">前端代码</text>
</g>
<!-- fe&#45;&gt;devops -->
<g id="edge11" class="edge">
<title>fe-&gt;devops</title>
<path fill="none" stroke="black" d="M101.06,-377.15C90.29,-371.81 78.95,-365.8 68.78,-359.6 46.58,-346.08 37.14,-345.77 21.78,-324.8 5.22,-302.2 5.9,-292.83 1.28,-265.2 -7.08,-215.19 36.63,-170.34 71.53,-143.22"/>
<polygon fill="black" stroke="black" points="73.53,-146.09 79.42,-137.29 69.32,-140.5 73.53,-146.09"/>
<text text-anchor="middle" x="27.53" y="-252.6" font-family="Times,serif" font-size="14.00">前端部署包</text>
</g>
<!-- be&#45;&gt;fe -->
<g id="edge12" class="edge">
<title>be-&gt;fe</title>
<path fill="none" stroke="black" d="M182.15,-230.81C183.65,-236.45 185.02,-242.61 185.78,-248.4 192.16,-297.51 197.87,-313.91 178.78,-359.6 177.52,-362.61 175.92,-365.56 174.11,-368.38"/>
<polygon fill="black" stroke="black" points="171.39,-366.16 168.22,-376.27 177,-370.35 171.39,-366.16"/>
<text text-anchor="middle" x="213.62" y="-299.8" font-family="Times,serif" font-size="14.00">API接口</text>
</g>
<!-- be&#45;&gt;qa -->
<g id="edge13" class="edge">
<title>be-&gt;qa</title>
<path fill="none" stroke="black" d="M157.41,-230.72C147.64,-241.22 135.29,-254.13 123.78,-265.2 120.31,-268.53 116.62,-271.95 112.91,-275.31"/>
<polygon fill="black" stroke="black" points="110.59,-272.69 105.45,-281.96 115.25,-277.92 110.59,-272.69"/>
<text text-anchor="middle" x="160.92" y="-252.6" font-family="Times,serif" font-size="14.00">后端代码</text>
</g>
<!-- be&#45;&gt;devops -->
<g id="edge14" class="edge">
<title>be-&gt;devops</title>
<path fill="none" stroke="black" d="M161.89,-188.55C153.17,-175.96 141.77,-159.5 132.05,-145.46"/>
<polygon fill="black" stroke="black" points="135.07,-143.68 126.5,-137.45 129.31,-147.67 135.07,-143.68"/>
<text text-anchor="middle" x="175.76" y="-158.2" font-family="Times,serif" font-size="14.00">后端部署包</text>
</g>
<!-- qa&#45;&gt;fe -->
<g id="edge15" class="edge">
<title>qa-&gt;fe</title>
<path fill="none" stroke="black" stroke-dasharray="5,2" d="M74.5,-325.22C72.33,-336.11 71.76,-349.37 77.78,-359.6 79.96,-363.31 82.65,-366.68 85.7,-369.75"/>
<polygon fill="black" stroke="black" points="83.4,-372.39 93.3,-376.16 87.92,-367.04 83.4,-372.39"/>
<text text-anchor="middle" x="98.78" y="-347" font-family="Times,serif" font-size="14.00">测试报告</text>
</g>
<!-- qa&#45;&gt;be -->
<g id="edge16" class="edge">
<title>qa-&gt;be</title>
<path fill="none" stroke="black" stroke-dasharray="5,2" d="M74.06,-282.95C71.64,-271.86 70.96,-258.34 77.78,-248.4 82.98,-240.81 89.95,-234.74 97.77,-229.89"/>
<polygon fill="black" stroke="black" points="99.2,-233.1 106.35,-225.28 95.89,-226.93 99.2,-233.1"/>
<text text-anchor="middle" x="98.78" y="-252.6" font-family="Times,serif" font-size="14.00">缺陷清单</text>
</g>
<!-- qa&#45;&gt;devops -->
<g id="edge17" class="edge">
<title>qa-&gt;devops</title>
<path fill="none" stroke="black" stroke-dasharray="5,2" d="M70.18,-282.82C59.5,-259.7 46,-220.87 56.78,-188.8 62.21,-172.64 72.82,-157.21 83.29,-144.77"/>
<polygon fill="black" stroke="black" points="85.8,-147.21 89.8,-137.4 80.56,-142.57 85.8,-147.21"/>
<text text-anchor="middle" x="77.78" y="-205.4" font-family="Times,serif" font-size="14.00">测试结果</text>
</g>
<!-- doc -->
<g id="node9" class="node">
<title>doc</title>
<polygon fill="lightgray" stroke="black" points="194.61,-41.6 28.94,-41.6 28.94,0 194.61,0 194.61,-41.6"/>
<text text-anchor="middle" x="111.78" y="-25" font-family="Times,serif" font-size="14.00">文档工程师</text>
<text text-anchor="middle" x="111.78" y="-8.2" font-family="Times,serif" font-size="14.00">(Documentation Engineer)</text>
</g>
<!-- devops&#45;&gt;doc -->
<g id="edge18" class="edge">
<title>devops-&gt;doc</title>
<path fill="none" stroke="black" d="M111.78,-94.15C111.78,-82.16 111.78,-66.67 111.78,-53.1"/>
<polygon fill="black" stroke="black" points="115.28,-53.32 111.78,-43.32 108.28,-53.32 115.28,-53.32"/>
<text text-anchor="middle" x="132.78" y="-63.8" font-family="Times,serif" font-size="14.00">部署手册</text>
</g>
</g>
</svg>